<svg width="29" height="38" viewBox="0 0 29 38" fill="none" xmlns="http://www.w3.org/2000/svg">
<path fill-rule="evenodd" clip-rule="evenodd" d="M2.15755 25.5658L2.15164 25.5737L2.14591 25.5819C1.82662 26.0339 1.11138 26.1668 0.552035 25.7717C0.104278 25.4555 -0.0303217 24.7508 0.350956 24.194C0.919843 23.4688 1.333 22.621 1.60436 21.7922C1.88686 20.9294 2.01825 19.949 2.01313 18.9874C2.00801 18.0259 1.86619 17.0469 1.57451 16.1871C1.29434 15.3613 0.87218 14.518 0.295603 13.7989C-0.091584 13.2461 0.0355043 12.5401 0.479867 12.2191C1.03497 11.8181 1.75159 11.9433 2.07568 12.392L2.08149 12.4L2.08749 12.4079C2.80513 13.3542 3.39373 14.4056 3.74548 15.4371C4.11573 16.6506 4.35158 17.8244 4.35771 18.9749C4.36415 20.1857 4.24846 21.3317 3.80417 22.4598C3.3203 23.6884 2.85174 24.6299 2.15755 25.5658ZM7.34626 27.813L7.36029 27.7931L7.37316 27.7725C8.96372 25.2242 9.88114 22.1491 9.86408 18.9456C9.84703 15.7429 8.89738 12.6785 7.28051 10.1477C6.93013 9.592 7.08752 8.93503 7.67812 8.5084C8.07477 8.22188 8.81943 8.32333 9.26125 8.91544C11.0867 11.8118 12.1894 15.313 12.2087 18.9331C12.2286 22.6769 11.1641 26.0645 9.36793 28.9819C8.95241 29.5538 8.31629 29.7141 7.76775 29.3899C7.17306 28.9542 7.06436 28.2121 7.34626 27.813ZM16.6573 5.1085L16.673 5.13944L16.6911 5.16901C19.1647 9.20184 20.5393 13.8536 20.5661 18.8886C20.5929 23.9214 19.2692 28.5855 16.8408 32.6431C16.4685 33.2418 15.84 33.4105 15.2027 33.114C14.6228 32.736 14.467 32.1097 14.7699 31.477C16.8351 27.8093 18.1193 23.4873 18.0949 18.9018C18.0706 14.3367 16.8769 10.0216 14.6318 6.35361C14.328 5.72731 14.4784 5.10355 15.0515 4.72127C15.7429 4.391 16.4164 4.63308 16.6573 5.1085ZM23.9815 1.27054L23.9922 1.29168L24.004 1.31219C27.0016 6.49361 28.7627 12.4175 28.7969 18.8448C28.8311 25.2655 27.1367 31.2022 24.2001 36.4114C23.8271 37.0031 23.2015 37.1688 22.5673 36.8737C21.9892 36.4969 21.8326 35.8733 22.1317 35.2428C24.9607 30.4145 26.4841 24.8207 26.4523 18.8573C26.4205 12.8785 24.7035 7.30637 21.9609 2.52573C21.6172 1.82786 21.8594 1.14436 22.3391 0.901318C23.0431 0.544577 23.7363 0.786739 23.9815 1.27054Z" fill="white"/>
</svg>
