<svg width="76" height="25" viewBox="0 0 76 25" fill="none" xmlns="http://www.w3.org/2000/svg">
<path d="M26.9862 23.8337L30.8261 1.30656H36.9659L33.1248 23.8337H26.9862ZM55.2795 1.80076C53.5175 1.16249 51.6562 0.842221 49.7823 0.854852C43.7229 0.854852 39.4542 3.9064 39.4175 8.28079C39.3841 11.5139 42.4655 13.3172 44.7918 14.393C47.1789 15.4963 47.9812 16.1997 47.9697 17.1847C47.9548 18.6927 46.063 19.3811 44.301 19.3811C41.8461 19.3811 40.5426 19.0363 38.5278 18.2008L37.7383 17.8433L36.8774 22.8797C38.3095 23.5073 40.9587 24.0521 43.708 24.0797C50.1546 24.0797 54.3394 21.0637 54.3877 16.3928C54.4106 13.8332 52.7786 11.8851 49.2386 10.2795C47.0951 9.24505 45.7825 8.54395 45.7963 7.49C45.7963 6.55559 46.9077 5.55571 49.3087 5.55571C50.8818 5.52049 52.445 5.81409 53.8981 6.41771L54.4474 6.67744L55.2795 1.80076ZM71.0531 1.30656H66.3293C64.8662 1.30656 63.7709 1.70656 63.1284 3.16622L54.0486 23.7187H60.5113C60.5113 23.7187 61.5458 20.9856 61.7837 20.3857L69.5268 20.3949C69.7073 21.1718 70.2624 23.7187 70.2624 23.7187H75.9999L71.0531 1.30656ZM63.5422 15.7883C64.049 14.4918 65.9857 9.49905 65.9857 9.49905C65.9489 9.55882 66.4891 8.1957 66.7983 7.35094L67.2131 9.29107C67.2131 9.29107 68.3878 14.6619 68.6326 15.7883H63.5422ZM21.7762 1.30656L15.7858 16.6147L15.1479 13.5034C14.0331 9.91745 10.5586 6.03268 6.67383 4.088L12.1516 23.7187L18.6247 23.7118L28.2573 1.30656H21.7463" fill="url(#paint0_linear_1765_95)"/>
<path d="M9.92571 1.30636H0.0792979L0 1.77412C7.6937 3.63721 12.7841 8.13805 14.8977 13.5446L12.7473 3.20047C12.3761 1.77644 11.3003 1.35118 9.96825 1.30176" fill="url(#paint1_linear_1765_95)"/>
<defs>
<linearGradient id="paint0_linear_1765_95" x1="41.3369" y1="0.854492" x2="41.3369" y2="24.0797" gradientUnits="userSpaceOnUse">
<stop stop-color="white"/>
<stop offset="1" stop-color="white" stop-opacity="0.75"/>
</linearGradient>
<linearGradient id="paint1_linear_1765_95" x1="7.44887" y1="1.30176" x2="7.44887" y2="13.5446" gradientUnits="userSpaceOnUse">
<stop stop-color="white"/>
<stop offset="1" stop-color="white" stop-opacity="0.75"/>
</linearGradient>
</defs>
</svg>
